<svg width="387" height="559" viewBox="0 0 387 559" fill="none" xmlns="http://www.w3.org/2000/svg">
<g opacity="0.3">
<rect width="387" height="115" rx="40" fill="white" fill-opacity="0.1"/>
<rect x="24" y="31" width="52" height="53" rx="26" fill="white" fill-opacity="0.1"/>
<path d="M55.2209 55.7952C56.4932 56.5757 56.4932 58.4243 55.2209 59.2048L49.0458 62.9928C47.7132 63.8103 46 62.8514 46 61.288L46 53.712C46 52.1486 47.7132 51.1897 49.0458 52.0072L55.2209 55.7952Z" fill="white"/>
<path d="M86.14 64.67V61.338H87.834L88.506 61.352H96.71L97.06 61.338H99.398V64.67H98.18V62.5H87.358V64.67H86.14ZM88.506 52H97.536V61.968H96.22V52.56L96.822 53.162H89.234L89.794 52.742C89.85 53.302 89.8873 53.862 89.906 54.422C89.934 54.982 89.948 55.5093 89.948 56.004C89.948 57.2173 89.8687 58.2627 89.71 59.14C89.5513 60.008 89.3227 60.6753 89.024 61.142C88.7253 61.6087 88.366 61.842 87.946 61.842L87.4 61.366C87.848 60.8807 88.1747 60.1807 88.38 59.266C88.5947 58.342 88.702 57.1707 88.702 55.752C88.702 55.164 88.6833 54.548 88.646 53.904C88.6087 53.2507 88.562 52.616 88.506 52ZM104.62 62.682C103.715 62.682 102.912 62.5093 102.212 62.164C101.521 61.8093 100.975 61.324 100.574 60.708C100.182 60.0827 99.9861 59.364 99.9861 58.552C99.9861 57.7307 100.173 57.012 100.546 56.396C100.919 55.78 101.437 55.2993 102.1 54.954C102.763 54.6087 103.523 54.436 104.382 54.436C105.231 54.436 105.973 54.6227 106.608 54.996C107.243 55.3693 107.733 55.8967 108.078 56.578C108.433 57.25 108.61 58.034 108.61 58.93H100.966V57.908H108.064L107.308 58.37C107.28 57.782 107.14 57.2733 106.888 56.844C106.636 56.4147 106.295 56.0833 105.866 55.85C105.437 55.6167 104.937 55.5 104.368 55.5C103.752 55.5 103.215 55.626 102.758 55.878C102.301 56.1207 101.941 56.466 101.68 56.914C101.428 57.362 101.302 57.8893 101.302 58.496C101.302 59.1307 101.447 59.6813 101.736 60.148C102.025 60.6147 102.431 60.974 102.954 61.226C103.477 61.478 104.093 61.604 104.802 61.604C105.446 61.604 106.076 61.4967 106.692 61.282C107.317 61.0673 107.877 60.7733 108.372 60.4V61.408C107.887 61.8 107.308 62.1127 106.636 62.346C105.964 62.57 105.292 62.682 104.62 62.682ZM110.21 54.618H111.484V62.5H110.21V54.618ZM116.986 54.618H118.274V62.5H116.986V54.618ZM110.924 57.992H117.588V59.042H110.924V57.992ZM120.355 62.5V54.618H121.643V62.094L121.125 61.478H124.807C125.367 61.478 125.81 61.338 126.137 61.058C126.463 60.7687 126.627 60.3813 126.627 59.896C126.627 59.4013 126.463 59.014 126.137 58.734C125.81 58.4447 125.367 58.3 124.807 58.3H121.223V57.306H124.919C125.525 57.306 126.053 57.4133 126.501 57.628C126.958 57.8427 127.313 58.146 127.565 58.538C127.817 58.93 127.943 59.3827 127.943 59.896C127.943 60.4187 127.817 60.876 127.565 61.268C127.313 61.66 126.958 61.9633 126.501 62.178C126.053 62.3927 125.525 62.5 124.919 62.5H120.355ZM136.646 52V62.5H135.33V52.322L136.156 53.036L131.83 53.806V52.728L135.652 52H136.646Z" fill="white"/>
<rect x="216" y="31" width="52" height="53" rx="26" fill="white" fill-opacity="0.1"/>
<path d="M235.625 54.7949V60.2136C235.625 60.674 235.951 61.2265 236.355 61.4532L241.313 64.2086C241.688 64.4211 242.312 64.4211 242.687 64.2086L247.645 61.4532C248.049 61.2336 248.375 60.674 248.375 60.2136V54.7949C248.375 54.3345 248.049 53.782 247.645 53.5553L242.687 50.7999C242.312 50.5874 241.688 50.5874 241.313 50.7999L236.355 53.5553C235.951 53.7749 235.625 54.3345 235.625 54.7949Z" fill="white"/>
<path d="M289.214 52V62.5H287.898V52.574L288.5 53.162H279.988L280.59 52.574V62.5H279.274V52H289.214ZM291.45 54.618H292.738V57.6L292.668 57.852V59.126L292.738 59.532V64.81H291.45V54.618ZM292.136 58.552C292.342 57.7307 292.654 57.012 293.074 56.396C293.504 55.78 294.017 55.2993 294.614 54.954C295.221 54.6087 295.888 54.436 296.616 54.436C297.391 54.436 298.077 54.6087 298.674 54.954C299.272 55.2993 299.738 55.78 300.074 56.396C300.42 57.012 300.592 57.7307 300.592 58.552C300.592 59.364 300.42 60.0827 300.074 60.708C299.738 61.324 299.272 61.8093 298.674 62.164C298.077 62.5093 297.391 62.682 296.616 62.682C295.888 62.682 295.221 62.5093 294.614 62.164C294.017 61.8187 293.504 61.338 293.074 60.722C292.654 60.0967 292.342 59.3733 292.136 58.552ZM299.276 58.552C299.276 57.9547 299.15 57.4273 298.898 56.97C298.656 56.5127 298.315 56.158 297.876 55.906C297.447 55.6447 296.957 55.514 296.406 55.514C295.846 55.514 295.328 55.6447 294.852 55.906C294.386 56.158 293.97 56.5127 293.606 56.97C293.242 57.4273 292.939 57.9547 292.696 58.552C292.939 59.1493 293.242 59.6767 293.606 60.134C293.97 60.5913 294.386 60.9507 294.852 61.212C295.328 61.464 295.846 61.59 296.406 61.59C296.957 61.59 297.447 61.464 297.876 61.212C298.315 60.9507 298.656 60.5913 298.898 60.134C299.15 59.6767 299.276 59.1493 299.276 58.552ZM309.714 62.5L309.434 59.518L309.784 58.552L309.434 57.6L309.714 54.618H311.03L310.666 58.552L311.03 62.5H309.714ZM310.218 58.552C310.012 59.3733 309.695 60.0967 309.266 60.722C308.846 61.338 308.332 61.8187 307.726 62.164C307.128 62.5093 306.466 62.682 305.738 62.682C304.963 62.682 304.277 62.5093 303.68 62.164C303.082 61.8093 302.611 61.324 302.266 60.708C301.93 60.0827 301.762 59.364 301.762 58.552C301.762 57.7307 301.93 57.012 302.266 56.396C302.611 55.78 303.082 55.2993 303.68 54.954C304.277 54.6087 304.963 54.436 305.738 54.436C306.466 54.436 307.128 54.6087 307.726 54.954C308.332 55.2993 308.85 55.78 309.28 56.396C309.709 57.012 310.022 57.7307 310.218 58.552ZM303.078 58.552C303.078 59.1493 303.199 59.6767 303.442 60.134C303.694 60.5913 304.034 60.9507 304.464 61.212C304.902 61.464 305.397 61.59 305.948 61.59C306.508 61.59 307.021 61.464 307.488 61.212C307.964 60.9507 308.384 60.5913 308.748 60.134C309.121 59.6767 309.424 59.1493 309.658 58.552C309.424 57.9547 309.121 57.4273 308.748 56.97C308.384 56.5127 307.964 56.158 307.488 55.906C307.021 55.6447 306.508 55.514 305.948 55.514C305.397 55.514 304.902 55.6447 304.464 55.906C304.034 56.158 303.694 56.5127 303.442 56.97C303.199 57.4273 303.078 57.9547 303.078 58.552ZM312.956 62.5V54.618H314.244V61.338L313.852 61.198L319.312 54.618H320.81L314.146 62.5H312.956ZM319.536 62.5L316.932 58.566L317.772 57.6L321.076 62.5H319.536ZM324.678 55.052H325.966V62.5H324.678V55.052ZM321.262 54.618H329.382V55.668H321.262V54.618ZM330.607 62.5V54.618H331.881V61.912L331.391 61.842L337.425 54.618H339.091V62.5H337.817V55.136L338.321 55.22L332.245 62.5H330.607ZM341.189 62.5V54.618H342.477V61.338L342.085 61.198L347.545 54.618H349.043L342.379 62.5H341.189ZM347.769 62.5L345.165 58.566L346.005 57.6L349.309 62.5H347.769ZM357.552 62.5L357.272 59.518L357.622 58.552L357.272 57.6L357.552 54.618H358.868L358.504 58.552L358.868 62.5H357.552ZM358.056 58.552C357.85 59.3733 357.533 60.0967 357.104 60.722C356.684 61.338 356.17 61.8187 355.564 62.164C354.966 62.5093 354.304 62.682 353.576 62.682C352.801 62.682 352.115 62.5093 351.518 62.164C350.92 61.8093 350.449 61.324 350.104 60.708C349.768 60.0827 349.6 59.364 349.6 58.552C349.6 57.7307 349.768 57.012 350.104 56.396C350.449 55.78 350.92 55.2993 351.518 54.954C352.115 54.6087 352.801 54.436 353.576 54.436C354.304 54.436 354.966 54.6087 355.564 54.954C356.17 55.2993 356.688 55.78 357.118 56.396C357.547 57.012 357.86 57.7307 358.056 58.552ZM350.916 58.552C350.916 59.1493 351.037 59.6767 351.28 60.134C351.532 60.5913 351.872 60.9507 352.302 61.212C352.74 61.464 353.235 61.59 353.786 61.59C354.346 61.59 354.859 61.464 355.326 61.212C355.802 60.9507 356.222 60.5913 356.586 60.134C356.959 59.6767 357.262 59.1493 357.496 58.552C357.262 57.9547 356.959 57.4273 356.586 56.97C356.222 56.5127 355.802 56.158 355.326 55.906C354.859 55.6447 354.346 55.514 353.786 55.514C353.235 55.514 352.74 55.6447 352.302 55.906C351.872 56.158 351.532 56.5127 351.28 56.97C351.037 57.4273 350.916 57.9547 350.916 58.552Z" fill="white"/>
<path opacity="0.3" d="M188.354 59.3536C188.549 59.1583 188.549 58.8417 188.354 58.6464L185.172 55.4645C184.976 55.2692 184.66 55.2692 184.464 55.4645C184.269 55.6597 184.269 55.9763 184.464 56.1716L187.293 59L184.464 61.8284C184.269 62.0237 184.269 62.3403 184.464 62.5355C184.66 62.7308 184.976 62.7308 185.172 62.5355L188.354 59.3536ZM154 59.5H188V58.5H154V59.5Z" fill="white"/>
</g>
<g opacity="0.3">
<rect y="148" width="387" height="115" rx="40" fill="white" fill-opacity="0.1"/>
<rect x="24" y="179" width="52" height="53" rx="26" fill="white" fill-opacity="0.1"/>
<path d="M55.2209 203.795C56.4932 204.576 56.4932 206.424 55.2209 207.205L49.0458 210.993C47.7132 211.81 46 210.851 46 209.288L46 201.712C46 200.149 47.7132 199.19 49.0458 200.007L55.2209 203.795Z" fill="white"/>
<path d="M86.14 212.67V209.338H87.834L88.506 209.352H96.71L97.06 209.338H99.398V212.67H98.18V210.5H87.358V212.67H86.14ZM88.506 200H97.536V209.968H96.22V200.56L96.822 201.162H89.234L89.794 200.742C89.85 201.302 89.8873 201.862 89.906 202.422C89.934 202.982 89.948 203.509 89.948 204.004C89.948 205.217 89.8687 206.263 89.71 207.14C89.5513 208.008 89.3227 208.675 89.024 209.142C88.7253 209.609 88.366 209.842 87.946 209.842L87.4 209.366C87.848 208.881 88.1747 208.181 88.38 207.266C88.5947 206.342 88.702 205.171 88.702 203.752C88.702 203.164 88.6833 202.548 88.646 201.904C88.6087 201.251 88.562 200.616 88.506 200ZM104.62 210.682C103.715 210.682 102.912 210.509 102.212 210.164C101.521 209.809 100.975 209.324 100.574 208.708C100.182 208.083 99.9861 207.364 99.9861 206.552C99.9861 205.731 100.173 205.012 100.546 204.396C100.919 203.78 101.437 203.299 102.1 202.954C102.763 202.609 103.523 202.436 104.382 202.436C105.231 202.436 105.973 202.623 106.608 202.996C107.243 203.369 107.733 203.897 108.078 204.578C108.433 205.25 108.61 206.034 108.61 206.93H100.966V205.908H108.064L107.308 206.37C107.28 205.782 107.14 205.273 106.888 204.844C106.636 204.415 106.295 204.083 105.866 203.85C105.437 203.617 104.937 203.5 104.368 203.5C103.752 203.5 103.215 203.626 102.758 203.878C102.301 204.121 101.941 204.466 101.68 204.914C101.428 205.362 101.302 205.889 101.302 206.496C101.302 207.131 101.447 207.681 101.736 208.148C102.025 208.615 102.431 208.974 102.954 209.226C103.477 209.478 104.093 209.604 104.802 209.604C105.446 209.604 106.076 209.497 106.692 209.282C107.317 209.067 107.877 208.773 108.372 208.4V209.408C107.887 209.8 107.308 210.113 106.636 210.346C105.964 210.57 105.292 210.682 104.62 210.682ZM110.21 202.618H111.484V210.5H110.21V202.618ZM116.986 202.618H118.274V210.5H116.986V202.618ZM110.924 205.992H117.588V207.042H110.924V205.992ZM120.355 210.5V202.618H121.643V210.094L121.125 209.478H124.807C125.367 209.478 125.81 209.338 126.137 209.058C126.463 208.769 126.627 208.381 126.627 207.896C126.627 207.401 126.463 207.014 126.137 206.734C125.81 206.445 125.367 206.3 124.807 206.3H121.223V205.306H124.919C125.525 205.306 126.053 205.413 126.501 205.628C126.958 205.843 127.313 206.146 127.565 206.538C127.817 206.93 127.943 207.383 127.943 207.896C127.943 208.419 127.817 208.876 127.565 209.268C127.313 209.66 126.958 209.963 126.501 210.178C126.053 210.393 125.525 210.5 124.919 210.5H120.355ZM132.404 203.528C132.46 202.781 132.698 202.133 133.118 201.582C133.547 201.022 134.112 200.588 134.812 200.28C135.521 199.972 136.324 199.818 137.22 199.818C138.088 199.818 138.844 199.953 139.488 200.224C140.141 200.495 140.65 200.877 141.014 201.372C141.378 201.867 141.56 202.441 141.56 203.094C141.56 203.598 141.438 204.069 141.196 204.508C140.962 204.937 140.566 205.381 140.006 205.838C139.455 206.295 138.704 206.818 137.752 207.406L133.93 209.786L133.762 209.38H141.91V210.5H132.446V209.492L136.884 206.692C137.705 206.169 138.358 205.717 138.844 205.334C139.338 204.942 139.693 204.573 139.908 204.228C140.122 203.883 140.23 203.519 140.23 203.136C140.23 202.697 140.108 202.315 139.866 201.988C139.632 201.652 139.287 201.391 138.83 201.204C138.382 201.017 137.836 200.924 137.192 200.924C136.445 200.924 135.82 201.041 135.316 201.274C134.821 201.498 134.443 201.806 134.182 202.198C133.93 202.59 133.78 203.033 133.734 203.528H132.404Z" fill="white"/>
<rect x="216" y="179" width="52" height="53" rx="26" fill="white" fill-opacity="0.1"/>
<path d="M235.625 202.795V208.214C235.625 208.674 235.951 209.227 236.355 209.453L241.313 212.209C241.688 212.421 242.312 212.421 242.687 212.209L247.645 209.453C248.049 209.234 248.375 208.674 248.375 208.214V202.795C248.375 202.334 248.049 201.782 247.645 201.555L242.687 198.8C242.312 198.587 241.688 198.587 241.313 198.8L236.355 201.555C235.951 201.775 235.625 202.334 235.625 202.795Z" fill="white"/>
<path d="M289.214 200V210.5H287.898V200.574L288.5 201.162H279.988L280.59 200.574V210.5H279.274V200H289.214ZM291.45 202.618H292.738V205.6L292.668 205.852V207.126L292.738 207.532V212.81H291.45V202.618ZM292.136 206.552C292.342 205.731 292.654 205.012 293.074 204.396C293.504 203.78 294.017 203.299 294.614 202.954C295.221 202.609 295.888 202.436 296.616 202.436C297.391 202.436 298.077 202.609 298.674 202.954C299.272 203.299 299.738 203.78 300.074 204.396C300.42 205.012 300.592 205.731 300.592 206.552C300.592 207.364 300.42 208.083 300.074 208.708C299.738 209.324 299.272 209.809 298.674 210.164C298.077 210.509 297.391 210.682 296.616 210.682C295.888 210.682 295.221 210.509 294.614 210.164C294.017 209.819 293.504 209.338 293.074 208.722C292.654 208.097 292.342 207.373 292.136 206.552ZM299.276 206.552C299.276 205.955 299.15 205.427 298.898 204.97C298.656 204.513 298.315 204.158 297.876 203.906C297.447 203.645 296.957 203.514 296.406 203.514C295.846 203.514 295.328 203.645 294.852 203.906C294.386 204.158 293.97 204.513 293.606 204.97C293.242 205.427 292.939 205.955 292.696 206.552C292.939 207.149 293.242 207.677 293.606 208.134C293.97 208.591 294.386 208.951 294.852 209.212C295.328 209.464 295.846 209.59 296.406 209.59C296.957 209.59 297.447 209.464 297.876 209.212C298.315 208.951 298.656 208.591 298.898 208.134C299.15 207.677 299.276 207.149 299.276 206.552ZM309.714 210.5L309.434 207.518L309.784 206.552L309.434 205.6L309.714 202.618H311.03L310.666 206.552L311.03 210.5H309.714ZM310.218 206.552C310.012 207.373 309.695 208.097 309.266 208.722C308.846 209.338 308.332 209.819 307.726 210.164C307.128 210.509 306.466 210.682 305.738 210.682C304.963 210.682 304.277 210.509 303.68 210.164C303.082 209.809 302.611 209.324 302.266 208.708C301.93 208.083 301.762 207.364 301.762 206.552C301.762 205.731 301.93 205.012 302.266 204.396C302.611 203.78 303.082 203.299 303.68 202.954C304.277 202.609 304.963 202.436 305.738 202.436C306.466 202.436 307.128 202.609 307.726 202.954C308.332 203.299 308.85 203.78 309.28 204.396C309.709 205.012 310.022 205.731 310.218 206.552ZM303.078 206.552C303.078 207.149 303.199 207.677 303.442 208.134C303.694 208.591 304.034 208.951 304.464 209.212C304.902 209.464 305.397 209.59 305.948 209.59C306.508 209.59 307.021 209.464 307.488 209.212C307.964 208.951 308.384 208.591 308.748 208.134C309.121 207.677 309.424 207.149 309.658 206.552C309.424 205.955 309.121 205.427 308.748 204.97C308.384 204.513 307.964 204.158 307.488 203.906C307.021 203.645 306.508 203.514 305.948 203.514C305.397 203.514 304.902 203.645 304.464 203.906C304.034 204.158 303.694 204.513 303.442 204.97C303.199 205.427 303.078 205.955 303.078 206.552ZM312.956 210.5V202.618H314.244V209.338L313.852 209.198L319.312 202.618H320.81L314.146 210.5H312.956ZM319.536 210.5L316.932 206.566L317.772 205.6L321.076 210.5H319.536ZM324.678 203.052H325.966V210.5H324.678V203.052ZM321.262 202.618H329.382V203.668H321.262V202.618ZM330.607 210.5V202.618H331.881V209.912L331.391 209.842L337.425 202.618H339.091V210.5H337.817V203.136L338.321 203.22L332.245 210.5H330.607ZM341.189 210.5V202.618H342.477V209.338L342.085 209.198L347.545 202.618H349.043L342.379 210.5H341.189ZM347.769 210.5L345.165 206.566L346.005 205.6L349.309 210.5H347.769ZM357.552 210.5L357.272 207.518L357.622 206.552L357.272 205.6L357.552 202.618H358.868L358.504 206.552L358.868 210.5H357.552ZM358.056 206.552C357.85 207.373 357.533 208.097 357.104 208.722C356.684 209.338 356.17 209.819 355.564 210.164C354.966 210.509 354.304 210.682 353.576 210.682C352.801 210.682 352.115 210.509 351.518 210.164C350.92 209.809 350.449 209.324 350.104 208.708C349.768 208.083 349.6 207.364 349.6 206.552C349.6 205.731 349.768 205.012 350.104 204.396C350.449 203.78 350.92 203.299 351.518 202.954C352.115 202.609 352.801 202.436 353.576 202.436C354.304 202.436 354.966 202.609 355.564 202.954C356.17 203.299 356.688 203.78 357.118 204.396C357.547 205.012 357.86 205.731 358.056 206.552ZM350.916 206.552C350.916 207.149 351.037 207.677 351.28 208.134C351.532 208.591 351.872 208.951 352.302 209.212C352.74 209.464 353.235 209.59 353.786 209.59C354.346 209.59 354.859 209.464 355.326 209.212C355.802 208.951 356.222 208.591 356.586 208.134C356.959 207.677 357.262 207.149 357.496 206.552C357.262 205.955 356.959 205.427 356.586 204.97C356.222 204.513 355.802 204.158 355.326 203.906C354.859 203.645 354.346 203.514 353.786 203.514C353.235 203.514 352.74 203.645 352.302 203.906C351.872 204.158 351.532 204.513 351.28 204.97C351.037 205.427 350.916 205.955 350.916 206.552Z" fill="white"/>
<path opacity="0.3" d="M188.354 207.354C188.549 207.158 188.549 206.842 188.354 206.646L185.172 203.464C184.976 203.269 184.66 203.269 184.464 203.464C184.269 203.66 184.269 203.976 184.464 204.172L187.293 207L184.464 209.828C184.269 210.024 184.269 210.34 184.464 210.536C184.66 210.731 184.976 210.731 185.172 210.536L188.354 207.354ZM154 207.5H188V206.5H154V207.5Z" fill="white"/>
</g>
<rect y="296" width="387" height="115" rx="40" fill="white" fill-opacity="0.1"/>
<rect x="24" y="327" width="52" height="53" rx="26" fill="white" fill-opacity="0.1"/>
<path d="M55.2209 351.795C56.4932 352.576 56.4932 354.424 55.2209 355.205L49.0458 358.993C47.7132 359.81 46 358.851 46 357.288L46 349.712C46 348.149 47.7132 347.19 49.0458 348.007L55.2209 351.795Z" fill="white"/>
<path d="M86.14 360.67V357.338H87.834L88.506 357.352H96.71L97.06 357.338H99.398V360.67H98.18V358.5H87.358V360.67H86.14ZM88.506 348H97.536V357.968H96.22V348.56L96.822 349.162H89.234L89.794 348.742C89.85 349.302 89.8873 349.862 89.906 350.422C89.934 350.982 89.948 351.509 89.948 352.004C89.948 353.217 89.8687 354.263 89.71 355.14C89.5513 356.008 89.3227 356.675 89.024 357.142C88.7253 357.609 88.366 357.842 87.946 357.842L87.4 357.366C87.848 356.881 88.1747 356.181 88.38 355.266C88.5947 354.342 88.702 353.171 88.702 351.752C88.702 351.164 88.6833 350.548 88.646 349.904C88.6087 349.251 88.562 348.616 88.506 348ZM104.62 358.682C103.715 358.682 102.912 358.509 102.212 358.164C101.521 357.809 100.975 357.324 100.574 356.708C100.182 356.083 99.9861 355.364 99.9861 354.552C99.9861 353.731 100.173 353.012 100.546 352.396C100.919 351.78 101.437 351.299 102.1 350.954C102.763 350.609 103.523 350.436 104.382 350.436C105.231 350.436 105.973 350.623 106.608 350.996C107.243 351.369 107.733 351.897 108.078 352.578C108.433 353.25 108.61 354.034 108.61 354.93H100.966V353.908H108.064L107.308 354.37C107.28 353.782 107.14 353.273 106.888 352.844C106.636 352.415 106.295 352.083 105.866 351.85C105.437 351.617 104.937 351.5 104.368 351.5C103.752 351.5 103.215 351.626 102.758 351.878C102.301 352.121 101.941 352.466 101.68 352.914C101.428 353.362 101.302 353.889 101.302 354.496C101.302 355.131 101.447 355.681 101.736 356.148C102.025 356.615 102.431 356.974 102.954 357.226C103.477 357.478 104.093 357.604 104.802 357.604C105.446 357.604 106.076 357.497 106.692 357.282C107.317 357.067 107.877 356.773 108.372 356.4V357.408C107.887 357.8 107.308 358.113 106.636 358.346C105.964 358.57 105.292 358.682 104.62 358.682ZM110.21 350.618H111.484V358.5H110.21V350.618ZM116.986 350.618H118.274V358.5H116.986V350.618ZM110.924 353.992H117.588V355.042H110.924V353.992ZM120.355 358.5V350.618H121.643V358.094L121.125 357.478H124.807C125.367 357.478 125.81 357.338 126.137 357.058C126.463 356.769 126.627 356.381 126.627 355.896C126.627 355.401 126.463 355.014 126.137 354.734C125.81 354.445 125.367 354.3 124.807 354.3H121.223V353.306H124.919C125.525 353.306 126.053 353.413 126.501 353.628C126.958 353.843 127.313 354.146 127.565 354.538C127.817 354.93 127.943 355.383 127.943 355.896C127.943 356.419 127.817 356.876 127.565 357.268C127.313 357.66 126.958 357.963 126.501 358.178C126.053 358.393 125.525 358.5 124.919 358.5H120.355ZM132.628 351.15C132.702 350.515 132.936 349.946 133.328 349.442C133.729 348.938 134.28 348.541 134.98 348.252C135.68 347.963 136.51 347.818 137.472 347.818C138.349 347.818 139.105 347.935 139.74 348.168C140.374 348.401 140.864 348.728 141.21 349.148C141.564 349.568 141.742 350.063 141.742 350.632C141.742 351.117 141.597 351.556 141.308 351.948C141.018 352.331 140.594 352.634 140.034 352.858C139.474 353.082 138.788 353.194 137.976 353.194V352.942C138.806 352.914 139.52 353.003 140.118 353.208C140.715 353.404 141.172 353.698 141.49 354.09C141.816 354.473 141.98 354.939 141.98 355.49C141.98 356.115 141.798 356.671 141.434 357.156C141.07 357.632 140.538 358.005 139.838 358.276C139.147 358.547 138.298 358.682 137.29 358.682C136.31 358.682 135.456 358.537 134.728 358.248C134 357.959 133.43 357.553 133.02 357.03C132.609 356.507 132.376 355.901 132.32 355.21H133.65C133.743 355.957 134.098 356.54 134.714 356.96C135.339 357.371 136.198 357.576 137.29 357.576C138.372 357.576 139.198 357.389 139.768 357.016C140.346 356.633 140.636 356.101 140.636 355.42C140.636 355.028 140.538 354.697 140.342 354.426C140.146 354.155 139.828 353.95 139.39 353.81C138.951 353.661 138.377 353.586 137.668 353.586H135.708V352.564H137.668C138.601 352.564 139.287 352.396 139.726 352.06C140.174 351.715 140.398 351.29 140.398 350.786C140.398 350.179 140.136 349.717 139.614 349.4C139.091 349.083 138.354 348.924 137.402 348.924C136.422 348.924 135.628 349.12 135.022 349.512C134.424 349.895 134.07 350.441 133.958 351.15H132.628Z" fill="white"/>
<rect x="216" y="327" width="52" height="53" rx="26" fill="white" fill-opacity="0.1"/>
<path d="M235.625 350.795V356.214C235.625 356.674 235.951 357.227 236.355 357.453L241.313 360.209C241.688 360.421 242.312 360.421 242.687 360.209L247.645 357.453C248.049 357.234 248.375 356.674 248.375 356.214V350.795C248.375 350.334 248.049 349.782 247.645 349.555L242.687 346.8C242.312 346.587 241.688 346.587 241.313 346.8L236.355 349.555C235.951 349.775 235.625 350.334 235.625 350.795Z" fill="white"/>
<path d="M289.214 348V358.5H287.898V348.574L288.5 349.162H279.988L280.59 348.574V358.5H279.274V348H289.214ZM291.45 350.618H292.738V353.6L292.668 353.852V355.126L292.738 355.532V360.81H291.45V350.618ZM292.136 354.552C292.342 353.731 292.654 353.012 293.074 352.396C293.504 351.78 294.017 351.299 294.614 350.954C295.221 350.609 295.888 350.436 296.616 350.436C297.391 350.436 298.077 350.609 298.674 350.954C299.272 351.299 299.738 351.78 300.074 352.396C300.42 353.012 300.592 353.731 300.592 354.552C300.592 355.364 300.42 356.083 300.074 356.708C299.738 357.324 299.272 357.809 298.674 358.164C298.077 358.509 297.391 358.682 296.616 358.682C295.888 358.682 295.221 358.509 294.614 358.164C294.017 357.819 293.504 357.338 293.074 356.722C292.654 356.097 292.342 355.373 292.136 354.552ZM299.276 354.552C299.276 353.955 299.15 353.427 298.898 352.97C298.656 352.513 298.315 352.158 297.876 351.906C297.447 351.645 296.957 351.514 296.406 351.514C295.846 351.514 295.328 351.645 294.852 351.906C294.386 352.158 293.97 352.513 293.606 352.97C293.242 353.427 292.939 353.955 292.696 354.552C292.939 355.149 293.242 355.677 293.606 356.134C293.97 356.591 294.386 356.951 294.852 357.212C295.328 357.464 295.846 357.59 296.406 357.59C296.957 357.59 297.447 357.464 297.876 357.212C298.315 356.951 298.656 356.591 298.898 356.134C299.15 355.677 299.276 355.149 299.276 354.552ZM309.714 358.5L309.434 355.518L309.784 354.552L309.434 353.6L309.714 350.618H311.03L310.666 354.552L311.03 358.5H309.714ZM310.218 354.552C310.012 355.373 309.695 356.097 309.266 356.722C308.846 357.338 308.332 357.819 307.726 358.164C307.128 358.509 306.466 358.682 305.738 358.682C304.963 358.682 304.277 358.509 303.68 358.164C303.082 357.809 302.611 357.324 302.266 356.708C301.93 356.083 301.762 355.364 301.762 354.552C301.762 353.731 301.93 353.012 302.266 352.396C302.611 351.78 303.082 351.299 303.68 350.954C304.277 350.609 304.963 350.436 305.738 350.436C306.466 350.436 307.128 350.609 307.726 350.954C308.332 351.299 308.85 351.78 309.28 352.396C309.709 353.012 310.022 353.731 310.218 354.552ZM303.078 354.552C303.078 355.149 303.199 355.677 303.442 356.134C303.694 356.591 304.034 356.951 304.464 357.212C304.902 357.464 305.397 357.59 305.948 357.59C306.508 357.59 307.021 357.464 307.488 357.212C307.964 356.951 308.384 356.591 308.748 356.134C309.121 355.677 309.424 355.149 309.658 354.552C309.424 353.955 309.121 353.427 308.748 352.97C308.384 352.513 307.964 352.158 307.488 351.906C307.021 351.645 306.508 351.514 305.948 351.514C305.397 351.514 304.902 351.645 304.464 351.906C304.034 352.158 303.694 352.513 303.442 352.97C303.199 353.427 303.078 353.955 303.078 354.552ZM312.956 358.5V350.618H314.244V357.338L313.852 357.198L319.312 350.618H320.81L314.146 358.5H312.956ZM319.536 358.5L316.932 354.566L317.772 353.6L321.076 358.5H319.536ZM324.678 351.052H325.966V358.5H324.678V351.052ZM321.262 350.618H329.382V351.668H321.262V350.618ZM330.607 358.5V350.618H331.881V357.912L331.391 357.842L337.425 350.618H339.091V358.5H337.817V351.136L338.321 351.22L332.245 358.5H330.607ZM341.189 358.5V350.618H342.477V357.338L342.085 357.198L347.545 350.618H349.043L342.379 358.5H341.189ZM347.769 358.5L345.165 354.566L346.005 353.6L349.309 358.5H347.769ZM357.552 358.5L357.272 355.518L357.622 354.552L357.272 353.6L357.552 350.618H358.868L358.504 354.552L358.868 358.5H357.552ZM358.056 354.552C357.85 355.373 357.533 356.097 357.104 356.722C356.684 357.338 356.17 357.819 355.564 358.164C354.966 358.509 354.304 358.682 353.576 358.682C352.801 358.682 352.115 358.509 351.518 358.164C350.92 357.809 350.449 357.324 350.104 356.708C349.768 356.083 349.6 355.364 349.6 354.552C349.6 353.731 349.768 353.012 350.104 352.396C350.449 351.78 350.92 351.299 351.518 350.954C352.115 350.609 352.801 350.436 353.576 350.436C354.304 350.436 354.966 350.609 355.564 350.954C356.17 351.299 356.688 351.78 357.118 352.396C357.547 353.012 357.86 353.731 358.056 354.552ZM350.916 354.552C350.916 355.149 351.037 355.677 351.28 356.134C351.532 356.591 351.872 356.951 352.302 357.212C352.74 357.464 353.235 357.59 353.786 357.59C354.346 357.59 354.859 357.464 355.326 357.212C355.802 356.951 356.222 356.591 356.586 356.134C356.959 355.677 357.262 355.149 357.496 354.552C357.262 353.955 356.959 353.427 356.586 352.97C356.222 352.513 355.802 352.158 355.326 351.906C354.859 351.645 354.346 351.514 353.786 351.514C353.235 351.514 352.74 351.645 352.302 351.906C351.872 352.158 351.532 352.513 351.28 352.97C351.037 353.427 350.916 353.955 350.916 354.552Z" fill="white"/>
<path opacity="0.3" d="M188.354 355.354C188.549 355.158 188.549 354.842 188.354 354.646L185.172 351.464C184.976 351.269 184.66 351.269 184.464 351.464C184.269 351.66 184.269 351.976 184.464 352.172L187.293 355L184.464 357.828C184.269 358.024 184.269 358.34 184.464 358.536C184.66 358.731 184.976 358.731 185.172 358.536L188.354 355.354ZM154 355.5H188V354.5H154V355.5Z" fill="white"/>
<g opacity="0.3">
<rect y="444" width="387" height="115" rx="40" fill="white" fill-opacity="0.1"/>
<rect x="24" y="475" width="52" height="53" rx="26" fill="white" fill-opacity="0.1"/>
<path d="M55.2209 499.795C56.4932 500.576 56.4932 502.424 55.2209 503.205L49.0458 506.993C47.7132 507.81 46 506.851 46 505.288L46 497.712C46 496.149 47.7132 495.19 49.0458 496.007L55.2209 499.795Z" fill="white"/>
<path d="M86.14 508.67V505.338H87.834L88.506 505.352H96.71L97.06 505.338H99.398V508.67H98.18V506.5H87.358V508.67H86.14ZM88.506 496H97.536V505.968H96.22V496.56L96.822 497.162H89.234L89.794 496.742C89.85 497.302 89.8873 497.862 89.906 498.422C89.934 498.982 89.948 499.509 89.948 500.004C89.948 501.217 89.8687 502.263 89.71 503.14C89.5513 504.008 89.3227 504.675 89.024 505.142C88.7253 505.609 88.366 505.842 87.946 505.842L87.4 505.366C87.848 504.881 88.1747 504.181 88.38 503.266C88.5947 502.342 88.702 501.171 88.702 499.752C88.702 499.164 88.6833 498.548 88.646 497.904C88.6087 497.251 88.562 496.616 88.506 496ZM104.62 506.682C103.715 506.682 102.912 506.509 102.212 506.164C101.521 505.809 100.975 505.324 100.574 504.708C100.182 504.083 99.9861 503.364 99.9861 502.552C99.9861 501.731 100.173 501.012 100.546 500.396C100.919 499.78 101.437 499.299 102.1 498.954C102.763 498.609 103.523 498.436 104.382 498.436C105.231 498.436 105.973 498.623 106.608 498.996C107.243 499.369 107.733 499.897 108.078 500.578C108.433 501.25 108.61 502.034 108.61 502.93H100.966V501.908H108.064L107.308 502.37C107.28 501.782 107.14 501.273 106.888 500.844C106.636 500.415 106.295 500.083 105.866 499.85C105.437 499.617 104.937 499.5 104.368 499.5C103.752 499.5 103.215 499.626 102.758 499.878C102.301 500.121 101.941 500.466 101.68 500.914C101.428 501.362 101.302 501.889 101.302 502.496C101.302 503.131 101.447 503.681 101.736 504.148C102.025 504.615 102.431 504.974 102.954 505.226C103.477 505.478 104.093 505.604 104.802 505.604C105.446 505.604 106.076 505.497 106.692 505.282C107.317 505.067 107.877 504.773 108.372 504.4V505.408C107.887 505.8 107.308 506.113 106.636 506.346C105.964 506.57 105.292 506.682 104.62 506.682ZM110.21 498.618H111.484V506.5H110.21V498.618ZM116.986 498.618H118.274V506.5H116.986V498.618ZM110.924 501.992H117.588V503.042H110.924V501.992ZM120.355 506.5V498.618H121.643V506.094L121.125 505.478H124.807C125.367 505.478 125.81 505.338 126.137 505.058C126.463 504.769 126.627 504.381 126.627 503.896C126.627 503.401 126.463 503.014 126.137 502.734C125.81 502.445 125.367 502.3 124.807 502.3H121.223V501.306H124.919C125.525 501.306 126.053 501.413 126.501 501.628C126.958 501.843 127.313 502.146 127.565 502.538C127.817 502.93 127.943 503.383 127.943 503.896C127.943 504.419 127.817 504.876 127.565 505.268C127.313 505.66 126.958 505.963 126.501 506.178C126.053 506.393 125.525 506.5 124.919 506.5H120.355ZM140.188 496V506.5H138.872V496.518H139.502L133.216 503.546L133.202 503.056H142.232V504.148H132.082V503.182L138.522 496H140.188Z" fill="white"/>
<rect x="216" y="475" width="52" height="53" rx="26" fill="white" fill-opacity="0.1"/>
<path d="M235.625 498.795V504.214C235.625 504.674 235.951 505.227 236.355 505.453L241.313 508.209C241.688 508.421 242.312 508.421 242.687 508.209L247.645 505.453C248.049 505.234 248.375 504.674 248.375 504.214V498.795C248.375 498.334 248.049 497.782 247.645 497.555L242.687 494.8C242.312 494.587 241.688 494.587 241.313 494.8L236.355 497.555C235.951 497.775 235.625 498.334 235.625 498.795Z" fill="white"/>
<path d="M289.214 496V506.5H287.898V496.574L288.5 497.162H279.988L280.59 496.574V506.5H279.274V496H289.214ZM291.45 498.618H292.738V501.6L292.668 501.852V503.126L292.738 503.532V508.81H291.45V498.618ZM292.136 502.552C292.342 501.731 292.654 501.012 293.074 500.396C293.504 499.78 294.017 499.299 294.614 498.954C295.221 498.609 295.888 498.436 296.616 498.436C297.391 498.436 298.077 498.609 298.674 498.954C299.272 499.299 299.738 499.78 300.074 500.396C300.42 501.012 300.592 501.731 300.592 502.552C300.592 503.364 300.42 504.083 300.074 504.708C299.738 505.324 299.272 505.809 298.674 506.164C298.077 506.509 297.391 506.682 296.616 506.682C295.888 506.682 295.221 506.509 294.614 506.164C294.017 505.819 293.504 505.338 293.074 504.722C292.654 504.097 292.342 503.373 292.136 502.552ZM299.276 502.552C299.276 501.955 299.15 501.427 298.898 500.97C298.656 500.513 298.315 500.158 297.876 499.906C297.447 499.645 296.957 499.514 296.406 499.514C295.846 499.514 295.328 499.645 294.852 499.906C294.386 500.158 293.97 500.513 293.606 500.97C293.242 501.427 292.939 501.955 292.696 502.552C292.939 503.149 293.242 503.677 293.606 504.134C293.97 504.591 294.386 504.951 294.852 505.212C295.328 505.464 295.846 505.59 296.406 505.59C296.957 505.59 297.447 505.464 297.876 505.212C298.315 504.951 298.656 504.591 298.898 504.134C299.15 503.677 299.276 503.149 299.276 502.552ZM309.714 506.5L309.434 503.518L309.784 502.552L309.434 501.6L309.714 498.618H311.03L310.666 502.552L311.03 506.5H309.714ZM310.218 502.552C310.012 503.373 309.695 504.097 309.266 504.722C308.846 505.338 308.332 505.819 307.726 506.164C307.128 506.509 306.466 506.682 305.738 506.682C304.963 506.682 304.277 506.509 303.68 506.164C303.082 505.809 302.611 505.324 302.266 504.708C301.93 504.083 301.762 503.364 301.762 502.552C301.762 501.731 301.93 501.012 302.266 500.396C302.611 499.78 303.082 499.299 303.68 498.954C304.277 498.609 304.963 498.436 305.738 498.436C306.466 498.436 307.128 498.609 307.726 498.954C308.332 499.299 308.85 499.78 309.28 500.396C309.709 501.012 310.022 501.731 310.218 502.552ZM303.078 502.552C303.078 503.149 303.199 503.677 303.442 504.134C303.694 504.591 304.034 504.951 304.464 505.212C304.902 505.464 305.397 505.59 305.948 505.59C306.508 505.59 307.021 505.464 307.488 505.212C307.964 504.951 308.384 504.591 308.748 504.134C309.121 503.677 309.424 503.149 309.658 502.552C309.424 501.955 309.121 501.427 308.748 500.97C308.384 500.513 307.964 500.158 307.488 499.906C307.021 499.645 306.508 499.514 305.948 499.514C305.397 499.514 304.902 499.645 304.464 499.906C304.034 500.158 303.694 500.513 303.442 500.97C303.199 501.427 303.078 501.955 303.078 502.552ZM312.956 506.5V498.618H314.244V505.338L313.852 505.198L319.312 498.618H320.81L314.146 506.5H312.956ZM319.536 506.5L316.932 502.566L317.772 501.6L321.076 506.5H319.536ZM324.678 499.052H325.966V506.5H324.678V499.052ZM321.262 498.618H329.382V499.668H321.262V498.618ZM330.607 506.5V498.618H331.881V505.912L331.391 505.842L337.425 498.618H339.091V506.5H337.817V499.136L338.321 499.22L332.245 506.5H330.607ZM341.189 506.5V498.618H342.477V505.338L342.085 505.198L347.545 498.618H349.043L342.379 506.5H341.189ZM347.769 506.5L345.165 502.566L346.005 501.6L349.309 506.5H347.769ZM357.552 506.5L357.272 503.518L357.622 502.552L357.272 501.6L357.552 498.618H358.868L358.504 502.552L358.868 506.5H357.552ZM358.056 502.552C357.85 503.373 357.533 504.097 357.104 504.722C356.684 505.338 356.17 505.819 355.564 506.164C354.966 506.509 354.304 506.682 353.576 506.682C352.801 506.682 352.115 506.509 351.518 506.164C350.92 505.809 350.449 505.324 350.104 504.708C349.768 504.083 349.6 503.364 349.6 502.552C349.6 501.731 349.768 501.012 350.104 500.396C350.449 499.78 350.92 499.299 351.518 498.954C352.115 498.609 352.801 498.436 353.576 498.436C354.304 498.436 354.966 498.609 355.564 498.954C356.17 499.299 356.688 499.78 357.118 500.396C357.547 501.012 357.86 501.731 358.056 502.552ZM350.916 502.552C350.916 503.149 351.037 503.677 351.28 504.134C351.532 504.591 351.872 504.951 352.302 505.212C352.74 505.464 353.235 505.59 353.786 505.59C354.346 505.59 354.859 505.464 355.326 505.212C355.802 504.951 356.222 504.591 356.586 504.134C356.959 503.677 357.262 503.149 357.496 502.552C357.262 501.955 356.959 501.427 356.586 500.97C356.222 500.513 355.802 500.158 355.326 499.906C354.859 499.645 354.346 499.514 353.786 499.514C353.235 499.514 352.74 499.645 352.302 499.906C351.872 500.158 351.532 500.513 351.28 500.97C351.037 501.427 350.916 501.955 350.916 502.552Z" fill="white"/>
<path opacity="0.3" d="M188.354 503.354C188.549 503.158 188.549 502.842 188.354 502.646L185.172 499.464C184.976 499.269 184.66 499.269 184.464 499.464C184.269 499.66 184.269 499.976 184.464 500.172L187.293 503L184.464 505.828C184.269 506.024 184.269 506.34 184.464 506.536C184.66 506.731 184.976 506.731 185.172 506.536L188.354 503.354ZM154 503.5H188V502.5H154V503.5Z" fill="white"/>
</g>
</svg>
